# xmcd CD database file
#
# Track frame offsets:
#	150
#	11408
#	20274
#	34572
#	47835
#	63565
#	76701
#	89214
#	100332
#	113562
#	124695
#	138731
#	155694
#	166667
#	182150
#	196748
#	213201
#	224896
#	237094
#	250905
#	263930
#	276243
#	291294
#	306562
#
# Disc length: 4309 seconds
#
# Revision: 1
# Processed by: cddbd v1.5.2PL0 Copyright (c) Steve Scherf et al.
# Submitted via: CDex 1.70beta2
#
DISCID=5f10d318
DTITLE=Lowe, Nick - Basher - The Best of
DYEAR=1989
DGENRE=Blues
TTITLE0=So it goes
TTITLE1=Heart of the City
TTITLE2=I love the Sound of breaking Glass
TTITLE3=Little Hitler
TTITLE4=No Reason
TTITLE5=36 Inches High
TTITLE6=Marie Provost
TTITLE7=American Squirm
TTITLE8=Cracking Up
TTITLE9=Big Kick, Plain Scrap
TTITLE10=Born Fighter
TTITLE11=Switchboard Susan
TTITLE12=Wihout Love
TTITLE13=Cruel to be kind
TTITLE14=When I write the Book
TTITLE15=Heart
TTITLE16=Ragin' Eyes
TTITLE17=Time wounds all Heels
TTITLE18=Maureen
TTITLE19=Half a Boy and half a Man
TTITLE20=7 Nights to Rock
TTITLE21=She don't love Nobody
TTITLE22=The Rose of England
TTITLE23=I knew the Bride
EXTD=YEAR: 1989
EXTT0=
EXTT1=
EXTT2=
EXTT3=
EXTT4=
EXTT5=
EXTT6=
EXTT7=
EXTT8=
EXTT9=
EXTT10=
EXTT11=
EXTT12=
EXTT13=
EXTT14=
EXTT15=
EXTT16=
EXTT17=
EXTT18=
EXTT19=
EXTT20=
EXTT21=
EXTT22=
EXTT23=
PLAYORDER=
